<svg xmlns="http://www.w3.org/2000/svg" viewBox="0 0 64 64" width="64" height="64">
  <defs>
    <radialGradient id="bg-can" cx="0.32" cy="0.22" r="1">
      <stop offset="0" stop-color="#F4F7FA"></stop>
      <stop offset="0.45" stop-color="#AEB7C0"></stop>
      <stop offset="1" stop-color="#454E57"></stop>
    </radialGradient>
    <linearGradient id="rim-can" x1="0" y1="0" x2="0" y2="1">
      <stop offset="0" stop-color="#FFFFFF" stop-opacity="0.85"></stop>
      <stop offset="0.5" stop-color="#6E7884" stop-opacity="0.5"></stop>
      <stop offset="1" stop-color="#FFFFFF" stop-opacity="0.7"></stop>
    </linearGradient>
    <linearGradient id="ink-can" x1="0" y1="0" x2="0" y2="1">
      <stop offset="0" stop-color="#2A3138"></stop>
      <stop offset="0.5" stop-color="#161A1E"></stop>
      <stop offset="1" stop-color="#0A0C0E"></stop>
    </linearGradient>

    <symbol id="can-icon" viewBox="0 0 64 64">
      <g fill-rule="evenodd">
        <path d="M 16 10 Q 14 10 14 12 V 52 Q 14 54 16 54 L 48 54 Q 50 54 50 52 V 22 L 38 10 Z"></path>
        <path fill="#EEF3F7" d="M 38 10 L 38 22 L 50 22 Z"></path>
        <path fill="none" stroke="#5A646E" stroke-width="0.9" stroke-linecap="round" d="M 38 10 L 50 22"></path>
        <path fill="#AEB7C0" opacity="0.45" d="M 38 14 L 38 22 L 46 22 Z"></path>
        <g fill="none" stroke="#EEF3F7" stroke-linecap="round">
          <circle cx="32" cy="40" r="9" stroke-width="2.6" stroke="#7C8893"></circle>
          <line x1="28" y1="36" x2="36" y2="44" stroke-width="2.6"></line>
          <line x1="36" y1="36" x2="28" y2="44" stroke-width="2.6"></line>
        </g>
      </g>
    </symbol>
  </defs>

  <rect width="64" height="64" rx="14" fill="url(#bg-can)"></rect>
  <rect x="0.6" y="0.6" width="62.8" height="62.8" rx="13.4" fill="none" stroke="url(#rim-can)" stroke-width="0.9"></rect>
  <rect x="2.4" y="2.4" width="59.2" height="59.2" rx="11.6" fill="none" stroke="#EEF3F7" stroke-width="0.5" stroke-opacity="0.45"></rect>

  <g opacity="0.7"><use href="#can-icon" width="64" height="64" fill="#EAF1F6" transform="translate(0.5,0.9)"></use></g>
  <use href="#can-icon" width="64" height="64" fill="url(#ink-can)"></use>
</svg>
